<?xml version="1.0" standalone="no"?>
<!DOCTYPE svg PUBLIC "-//W3C//DTD SVG 20010904//EN"
 "http://www.w3.org/TR/2001/REC-SVG-20010904/DTD/svg10.dtd">
<svg version="1.0" xmlns="http://www.w3.org/2000/svg"
 width="1024.000000pt" height="1024.000000pt" viewBox="0 0 1024.000000 1024.000000"
 preserveAspectRatio="xMidYMid meet">

<g transform="translate(0.000000,1024.000000) scale(0.100000,-0.100000)"
fill="#000000" stroke="none">
<path d="M0 5120 l0 -5120 5120 0 5120 0 0 5120 0 5120 -5120 0 -5120 0 0
-5120z m5595 2521 c378 -65 601 -182 977 -513 l79 -70 -38 -46 c-51 -63 -433
-525 -443 -535 -4 -5 -37 13 -71 40 -171 133 -421 249 -649 303 -179 41 -411
44 -560 5 -277 -72 -442 -303 -402 -562 22 -141 92 -238 237 -328 123 -77 297
-145 892 -346 423 -144 603 -242 792 -432 176 -178 274 -360 327 -609 28 -130
25 -457 -5 -598 -87 -409 -366 -743 -783 -939 -248 -117 -480 -161 -848 -161
-305 0 -525 29 -782 104 -327 95 -660 290 -923 538 l-60 57 51 53 c28 29 145
161 259 293 114 132 213 246 220 254 11 11 27 1 96 -59 180 -155 407 -284 634
-359 349 -115 718 -106 952 24 275 154 368 501 195 731 -113 148 -321 251
-862 425 -418 134 -601 213 -806 350 -281 188 -445 434 -500 750 -13 75 -15
139 -11 314 4 197 7 230 30 317 67 247 202 473 374 626 262 231 567 359 939
392 172 15 552 5 689 -19z"/>
</g>
</svg>
